<?xml version="1.0" encoding="UTF-8" standalone="no"?>
<!DOCTYPE svg PUBLIC "-//W3C//DTD SVG 1.1//EN" "http://www.w3.org/Graphics/SVG/1.1/DTD/svg11.dtd">
<svg width="100%" height="100%" viewBox="0 0 529 915" version="1.1" xmlns="http://www.w3.org/2000/svg" xmlns:xlink="http://www.w3.org/1999/xlink" xml:space="preserve" xmlns:serif="http://www.serif.com/" style="fill-rule:evenodd;clip-rule:evenodd;stroke-linejoin:round;stroke-miterlimit:2;">
    <g transform="matrix(1,0,0,1,-275.832,-82.5356)">
        <g transform="matrix(2.88018,0,0,2.88018,-979.768,-739.349)">
            <g transform="matrix(0.577413,0,0,0.732478,347.233,138.933)">
                <rect x="153.637" y="199.905" width="58.805" height="433.683" style="fill:rgb(30,32,76);"/>
            </g>
            <g transform="matrix(0.578107,0,0,0.651351,392.218,172.742)">
                <rect x="153.637" y="199.905" width="58.805" height="433.683" style="fill:rgb(30,32,76);fill-opacity:0.88;"/>
            </g>
            <g transform="matrix(0.458966,0,0,0.567521,454.026,207.678)">
                <rect x="153.637" y="199.905" width="58.805" height="433.683" style="fill:rgb(30,32,76);fill-opacity:0.75;"/>
            </g>
            <g transform="matrix(0.349781,0,0,0.494507,505.339,238.106)">
                <rect x="153.637" y="199.905" width="58.805" height="433.683" style="fill:rgb(30,32,76);fill-opacity:0.69;"/>
            </g>
            <g transform="matrix(0.220718,0,0,0.326845,551.49,307.978)">
                <rect x="153.637" y="199.905" width="58.805" height="433.683" style="fill:rgb(30,32,76);fill-opacity:0.62;"/>
            </g>
            <g transform="matrix(0.220718,0,0,0.203942,572.493,359.198)">
                <rect x="153.637" y="199.905" width="58.805" height="433.683" style="fill:rgb(30,32,76);fill-opacity:0.62;"/>
            </g>
        </g>
    </g>
</svg>
