<svg width="187" height="80" viewBox="0 0 187 80" fill="none" xmlns="http://www.w3.org/2000/svg">
<path d="M0.963016 59V57.131L2.74302 56.597C3.98902 56.1817 4.79002 55.6477 5.14602 54.995C5.50202 54.283 5.68002 53.304 5.68002 52.058V7.024C5.68002 5.83733 5.50202 4.91766 5.14602 4.265C4.79002 3.553 4.01868 2.98933 2.83202 2.574L0.963016 2.04V0.170999H23.035V2.04L21.344 2.574C20.2167 2.98933 19.4453 3.553 19.03 4.265C18.674 4.977 18.496 5.956 18.496 7.202V56.33H31.579C33.5964 56.33 35.1094 55.8257 36.118 54.817C37.1267 53.8083 38.076 52.3547 38.966 50.456L42.259 43.069H44.751L43.861 59H0.963016ZM71.0985 60.246C66.7078 60.246 62.8512 59.3263 59.5285 57.487C56.2652 55.6477 53.7138 53.037 51.8745 49.655C50.0945 46.273 49.2045 42.2383 49.2045 37.551C49.2045 32.8637 50.1538 28.829 52.0525 25.447C54.0105 22.065 56.6212 19.484 59.8845 17.704C63.2072 15.8647 66.9452 14.945 71.0985 14.945C75.2518 14.945 78.9602 15.8647 82.2235 17.704C85.5462 19.484 88.1568 22.065 90.0555 25.447C92.0135 28.7697 92.9925 32.8043 92.9925 37.551C92.9925 42.2383 92.0728 46.3027 90.2335 49.744C88.4535 53.126 85.9318 55.7367 82.6685 57.576C79.4052 59.356 75.5485 60.246 71.0985 60.246ZM71.0985 57.754C73.2345 57.754 74.9552 57.1903 76.2605 56.063C77.6252 54.8763 78.6042 52.8293 79.1975 49.922C79.7908 47.0147 80.0875 42.9503 80.0875 37.729C80.0875 32.4483 79.7908 28.3543 79.1975 25.447C78.6042 22.4803 77.6252 20.4333 76.2605 19.306C74.9552 18.1193 73.2345 17.526 71.0985 17.526C68.9625 17.526 67.2418 18.1193 65.9365 19.306C64.6312 20.4333 63.6522 22.4803 62.9995 25.447C62.4062 28.3543 62.1095 32.4483 62.1095 37.729C62.1095 42.9503 62.4062 47.0147 62.9995 49.922C63.6522 52.8293 64.6312 54.8763 65.9365 56.063C67.2418 57.1903 68.9625 57.754 71.0985 57.754ZM116.31 43.781C112.394 43.781 109.041 43.1283 106.253 41.823V45.027C106.253 46.807 107.143 47.875 108.923 48.231L124.765 51.168C127.791 51.7613 130.461 52.503 132.775 53.393C135.089 54.2237 136.898 55.44 138.204 57.042C139.509 58.5847 140.162 60.691 140.162 63.361C140.162 66.209 139.212 68.8493 137.314 71.282C135.474 73.774 132.715 75.7617 129.037 77.245C125.417 78.7877 120.878 79.559 115.42 79.559C110.732 79.559 106.994 79.0547 104.206 78.046C101.476 77.0967 99.5185 75.8507 98.3318 74.308C97.1451 72.7653 96.5518 71.104 96.5518 69.324C96.5518 67.188 97.2638 65.052 98.6878 62.916C100.171 60.78 102.07 59 104.384 57.576C100.764 56.2113 98.9548 54.0457 98.9548 51.079C98.9548 49.9517 99.2218 48.9133 99.7558 47.964C100.29 47.0147 100.942 46.0653 101.714 45.116L104.918 41.111C100.646 38.619 98.5098 34.7327 98.5098 29.452C98.5098 25.1207 100.023 21.62 103.049 18.95C106.134 16.28 110.554 14.945 116.31 14.945C122.065 14.945 126.515 16.28 129.66 18.95C131.558 18.6533 133.338 18.1787 135 17.526C136.661 16.8733 138.204 15.9833 139.628 14.856L140.874 15.746V20.73H131.262C133.16 23.1033 134.11 26.0107 134.11 29.452C134.11 33.6647 132.567 37.106 129.482 39.776C126.456 42.446 122.065 43.781 116.31 43.781ZM116.132 41.378C118.624 41.378 120.433 40.4287 121.561 38.53C122.747 36.572 123.341 33.457 123.341 29.185C123.341 24.9723 122.777 21.9463 121.65 20.107C120.522 18.2677 118.772 17.348 116.399 17.348C114.025 17.348 112.245 18.2973 111.059 20.196C109.931 22.0353 109.368 25.091 109.368 29.363C109.368 33.635 109.902 36.7203 110.97 38.619C112.038 40.4583 113.758 41.378 116.132 41.378ZM103.494 66.743C103.494 70.0063 104.532 72.439 106.609 74.041C108.685 75.7023 111.978 76.533 116.488 76.533C121.472 76.533 125.15 75.7023 127.524 74.041C129.956 72.439 131.173 70.303 131.173 67.633C131.173 65.9717 130.55 64.6663 129.304 63.717C128.117 62.7677 126.1 62.026 123.252 61.492L107.321 58.377C107.083 58.3177 106.846 58.2583 106.609 58.199C105.719 59.3857 104.977 60.7503 104.384 62.293C103.79 63.8357 103.494 65.319 103.494 66.743ZM164.966 60.246C160.575 60.246 156.718 59.3263 153.396 57.487C150.132 55.6477 147.581 53.037 145.742 49.655C143.962 46.273 143.072 42.2383 143.072 37.551C143.072 32.8637 144.021 28.829 145.92 25.447C147.878 22.065 150.488 19.484 153.752 17.704C157.074 15.8647 160.812 14.945 164.966 14.945C169.119 14.945 172.827 15.8647 176.091 17.704C179.413 19.484 182.024 22.065 183.923 25.447C185.881 28.7697 186.86 32.8043 186.86 37.551C186.86 42.2383 185.94 46.3027 184.101 49.744C182.321 53.126 179.799 55.7367 176.536 57.576C173.272 59.356 169.416 60.246 164.966 60.246ZM164.966 57.754C167.102 57.754 168.822 57.1903 170.128 56.063C171.492 54.8763 172.471 52.8293 173.065 49.922C173.658 47.0147 173.955 42.9503 173.955 37.729C173.955 32.4483 173.658 28.3543 173.065 25.447C172.471 22.4803 171.492 20.4333 170.128 19.306C168.822 18.1193 167.102 17.526 164.966 17.526C162.83 17.526 161.109 18.1193 159.804 19.306C158.498 20.4333 157.519 22.4803 156.867 25.447C156.273 28.3543 155.977 32.4483 155.977 37.729C155.977 42.9503 156.273 47.0147 156.867 49.922C157.519 52.8293 158.498 54.8763 159.804 56.063C161.109 57.1903 162.83 57.754 164.966 57.754Z" fill="black"/>
</svg>
