<svg width="18" height="20" viewBox="0 0 18 20" fill="none" xmlns="http://www.w3.org/2000/svg">
<path d="M18 6.34545V14.5455C18 15.5455 17.19 16.3636 16.2 16.3636H3.6L0 20V3.63636C0 2.63636 0.81 1.81818 1.8 1.81818H10.89C10.836 2.10909 10.8 2.41818 10.8 2.72727C10.8 5.23636 12.816 7.27273 15.3 7.27273C16.317 7.27273 17.244 6.91818 18 6.34545ZM12.6 2.72727C12.6 4.23636 13.806 5.45455 15.3 5.45455C16.794 5.45455 18 4.23636 18 2.72727C18 1.21818 16.794 0 15.3 0C13.806 0 12.6 1.21818 12.6 2.72727Z" fill="#1E204C"/>
</svg>
